<svg
    version="1.0"
    xmlns="http://www.w3.org/2000/svg"
    xmlns:xlink="http://www.w3.org/1999/xlink"
    width="512"
    height="512"
    viewBox="0 0 512 512"
  >
    <svg id="global-svg-defs" version="1.0" xmlns="http://www.w3.org/2000/svg" width="0" height="0" viewBox="0 0 340.000000 250.000000" preserveAspectRatio="xMidYMid meet" color-interpolation-filters="sRGB" class="el-tooltip" style="margin: auto;" xmlns:xlink="http://www.w3.org/1999/xlink">
    <defs>
      <pattern id="watermark" patternUnits="userSpaceOnUse" width="100%" height="100%">
        <image xlink:href="https://www.logoai.com/img/watermark/LOGOAI-watermark.png" x="0" y="0" width="100%" height="100%">
        </image>
      </pattern>
                    <linearGradient id="92" x1="0%" y1="0%" x2="100%" y2="0%">
          <stop offset="0%" stop-color="#fa71cd"></stop>
          <stop offset="100%" stop-color="#9b59b6"></stop>
        </linearGradient>
              <linearGradient id="93" x1="0%" y1="0%" x2="100%" y2="0%">
          <stop offset="0%" stop-color="#f9d423"></stop>
          <stop offset="100%" stop-color="#f83600"></stop>
        </linearGradient>
              <linearGradient id="94" x1="0%" y1="0%" x2="100%" y2="0%">
          <stop offset="0%" stop-color="#0064d2"></stop>
          <stop offset="100%" stop-color="#1cb0f6"></stop>
        </linearGradient>
              <linearGradient id="95" x1="0%" y1="0%" x2="100%" y2="0%">
          <stop offset="0%" stop-color="#f00978"></stop>
          <stop offset="100%" stop-color="#3f51b1"></stop>
        </linearGradient>
              <linearGradient id="96" x1="0%" y1="0%" x2="100%" y2="0%">
          <stop offset="0%" stop-color="#7873f5"></stop>
          <stop offset="100%" stop-color="#ec77ab"></stop>
        </linearGradient>
              <linearGradient id="97" x1="0%" y1="0%" x2="100%" y2="0%">
          <stop offset="0%" stop-color="#f9d423"></stop>
          <stop offset="100%" stop-color="#e14fad"></stop>
        </linearGradient>
              <linearGradient id="98" x1="0%" y1="0%" x2="100%" y2="0%">
          <stop offset="0%" stop-color="#009efd"></stop>
          <stop offset="100%" stop-color="#2af598"></stop>
        </linearGradient>
              <linearGradient id="99" x1="0%" y1="0%" x2="100%" y2="0%">
          <stop offset="0%" stop-color="#ffcc00"></stop>
          <stop offset="100%" stop-color="#00b140"></stop>
        </linearGradient>
              <linearGradient id="100" x1="0%" y1="0%" x2="100%" y2="0%">
          <stop offset="0%" stop-color="#d51007"></stop>
          <stop offset="100%" stop-color="#ff8177"></stop>
        </linearGradient>
              <linearGradient id="102" x1="0%" y1="0%" x2="100%" y2="0%">
          <stop offset="0%" stop-color="#a2b6df"></stop>
          <stop offset="100%" stop-color="#0c3483"></stop>
        </linearGradient>
              <linearGradient id="103" x1="0%" y1="0%" x2="100%" y2="0%">
          <stop offset="0%" stop-color="#7ac5d8"></stop>
          <stop offset="100%" stop-color="#eea2a2"></stop>
        </linearGradient>
              <linearGradient id="104" x1="0%" y1="0%" x2="100%" y2="0%">
          <stop offset="0%" stop-color="#00ecbc"></stop>
          <stop offset="100%" stop-color="#007adf"></stop>
        </linearGradient>
          </defs>
  </svg>
    <rect
      x="0"
      y="0"
      width="100%"
      height="100%"
      fill="transparent"
      fill-opacity="1"
    ></rect>
    <svg data-v-0dd9719b="" version="1.0" xmlns="http://www.w3.org/2000/svg" xmlns:xlink="http://www.w3.org/1999/xlink" width="100%" height="100%" viewBox="0 0 100 100" preserveAspectRatio="xMidYMid meet" color-interpolation-filters="sRGB" style="margin: auto;"> <rect data-v-0dd9719b="" x="0" y="0" width="100%" height="100%" fill="#ffffff" fill-opacity="1" class="background" style="display: none;"/> <rect data-v-0dd9719b="" x="0" y="0" width="100%" height="100%" fill="url(#watermark)" fill-opacity="1" class="watermarklayer" style="display: none;"/> <g data-v-0dd9719b="" fill="#333" class="iconsvg-imagesvg"><rect fill="#333" fill-opacity="0" stroke-width="2" x="0" y="0" width="100" height="100" class="image-rect"/> <svg viewBox="0 0 60 60" x="0" y="0" width="100" height="100" class="image-svg-svg bn" style="overflow: visible;"><g hollow-target="iconBnFill" mask="url(#77c77396-b446-4841-ad53-6a16650c534a)"><g><svg xmlns="http://www.w3.org/2000/svg" viewBox="0 0 372 372" style="overflow: visible;" width="60" height="60" x="0" y="0" filtersec="colorsb1504995116" filter="url(#VBQ79Fv7wLvGweV1OOJlI)"><g transform="scale(1, 1) skewX(0)"><path d="M372 372H0V0h372z" fill="#000000"/></g><defs><filter id="VBQ79Fv7wLvGweV1OOJlI"><feColorMatrix type="matrix" values="0 0 0 0 0.19921875  0 0 0 0 0.19921875  0 0 0 0 0.19921875  0 0 0 1 0"/></filter></defs></svg></g> <g filter="url(#colors2825793630)"><svg xmlns="http://www.w3.org/2000/svg" xmlns:xlink="http://www.w3.org/1999/xlink" viewBox="0 0 58.382004310344826 60.71484375" width="45" height="45" x="7.5" y="7.5" class="image-svg-letter"><path transform="translate(13.909348060344827 51.99609375)" d="M27.42-29.04L27.42-29.04Q26.16-29.50 24.86-29.79Q23.55-30.09 22.25-30.48L22.25-30.48Q20.46-30.97 18.32-31.85Q16.17-32.73 14.34-34.01Q12.52-35.30 11.29-37.02Q10.05-38.74 10.05-40.96L10.05-40.96Q10.05-43.00 11.04-44.60Q12.02-46.20 13.61-47.43Q15.19-48.66 17.23-49.52Q19.27-50.38 21.39-50.92Q23.52-51.47 25.52-51.73Q27.53-52.00 29.11-52.00L29.11-52.00L30.06-52.00Q31.11-52.00 32.43-51.87Q33.75-51.75 35.14-51.45Q36.53-51.15 37.86-50.64Q39.20-50.13 40.25-49.38Q41.31-48.62 41.94-47.57Q42.57-46.51 42.57-45.14L42.57-45.14Q42.57-43.91 42.05-42.79Q41.52-41.66 40.69-40.69Q39.87-39.73 38.87-38.90Q37.86-38.07 36.91-37.44L36.91-37.44Q36-36.81 35.02-36.19Q34.03-35.58 32.87-35.58L32.87-35.58Q32.17-35.58 31.69-35.82Q31.22-36.07 30.88-36.46Q30.55-36.84 30.32-37.35Q30.09-37.86 29.88-38.43L29.88-38.43Q29.74-38.81 29.62-39.08Q29.50-39.34 29.50-39.76L29.50-39.76Q29.50-40.18 30.20-40.61Q30.90-41.03 31.92-41.50Q32.94-41.98 34.08-42.52Q35.23-43.07 36.07-43.70Q36.91-44.33 37.28-45.07Q37.65-45.81 37.13-46.37Q36.60-46.93 35.82-47.04Q35.05-47.14 34.14-47.14L34.14-47.14Q32.27-47.14 29.99-46.74Q27.70-46.34 25.54-45.70Q23.38-45.07 21.59-44.30Q19.79-43.52 18.95-42.79L18.95-42.79Q18.63-42.50 18.19-41.99Q17.75-41.48 17.75-40.99L17.75-40.99Q17.75-40.29 18.47-39.62Q19.20-38.95 20.18-38.43Q21.16-37.90 22.18-37.51Q23.20-37.13 23.77-36.95L23.77-36.95Q25.03-36.56 26.31-36.23Q27.60-35.89 28.86-35.53Q30.13-35.16 31.38-34.73Q32.63-34.31 33.82-33.71L33.82-33.71Q35.93-32.70 37.86-31.36Q39.80-30.02 41.26-28.32Q42.71-26.61 43.59-24.52Q44.47-22.43 44.47-19.90L44.47-19.90Q44.47-16.80 43.08-13.46Q41.70-10.13 39.15-6.94Q36.60-3.76 33.05-0.91Q29.50 1.93 25.17 4.08Q20.85 6.22 15.87 7.47Q10.90 8.72 5.55 8.72L5.55 8.72Q4.99 8.72 4.45 8.70Q3.90 8.68 3.34 8.65L3.34 8.65Q-1.09 8.44-4.52 6.68Q-7.95 4.92-10.18 2.20Q-12.41-0.53-13.34-3.92Q-14.27-7.31-13.68-10.85Q-13.08-14.38-10.85-17.77Q-8.61-21.16-4.57-23.84L-4.57-23.84Q-2.85-25.00-0.54-25.82Q1.76-26.65 4.24-27.19Q6.71-27.74 9.19-28.00Q11.67-28.27 13.75-28.27L13.75-28.27Q15.29-28.27 17.10-28.14Q18.91-28.02 20.69-27.63Q22.46-27.25 24.01-26.53Q25.56-25.80 26.61-24.64L26.61-24.64Q27-24.26 27.35-23.71Q27.70-23.17 27.70-22.57L27.70-22.57Q27.70-22.15 27.47-21.87Q27.25-21.59 26.91-21.39Q26.58-21.20 26.17-21.13Q25.77-21.06 25.42-21.06L25.42-21.06Q23.80-21.06 22.15-21.60Q20.50-22.15 18.95-22.54L18.95-22.54Q16.63-23.17 14.17-23.17L14.17-23.17Q11.64-23.17 9.39-22.32Q7.14-21.48 5.47-19.95Q3.80-18.42 2.81-16.28Q1.83-14.13 1.83-11.53L1.83-11.53Q1.83-10.30 2.00-9.30Q2.18-8.30 2.64-7.49Q3.09-6.68 3.85-6.06Q4.61-5.45 5.80-4.96L5.80-4.96Q7.07-4.46 8.37-4.29Q9.67-4.11 11.04-4.11L11.04-4.11Q13.08-4.11 15.79-4.62Q18.49-5.13 21.36-6.12Q24.22-7.10 27-8.51Q29.78-9.91 31.96-11.69Q34.14-13.46 35.47-15.59Q36.81-17.72 36.81-20.11L36.81-20.11Q36.81-21.90 35.89-23.34Q34.98-24.79 33.59-25.88Q32.20-26.96 30.55-27.76Q28.90-28.55 27.42-29.04Z"/></svg></g></g><mask id="77c77396-b446-4841-ad53-6a16650c534a"><g fill="white"><svg xmlns="http://www.w3.org/2000/svg" viewBox="0 0 372 372" style="overflow: visible;" width="60" height="60" x="0" y="0" filtersec="colorsb1504995116"><g transform="scale(1, 1) skewX(0)"><path d="M372 372H0V0h372z"/></g><defs/></svg></g> <g fill="black"><svg xmlns="http://www.w3.org/2000/svg" xmlns:xlink="http://www.w3.org/1999/xlink" viewBox="0 0 58.382004310344826 60.71484375" width="45" height="45" x="7.5" y="7.5" class="image-svg-letter"><path transform="translate(13.909348060344827 51.99609375)" d="M27.42-29.04L27.42-29.04Q26.16-29.50 24.86-29.79Q23.55-30.09 22.25-30.48L22.25-30.48Q20.46-30.97 18.32-31.85Q16.17-32.73 14.34-34.01Q12.52-35.30 11.29-37.02Q10.05-38.74 10.05-40.96L10.05-40.96Q10.05-43.00 11.04-44.60Q12.02-46.20 13.61-47.43Q15.19-48.66 17.23-49.52Q19.27-50.38 21.39-50.92Q23.52-51.47 25.52-51.73Q27.53-52.00 29.11-52.00L29.11-52.00L30.06-52.00Q31.11-52.00 32.43-51.87Q33.75-51.75 35.14-51.45Q36.53-51.15 37.86-50.64Q39.20-50.13 40.25-49.38Q41.31-48.62 41.94-47.57Q42.57-46.51 42.57-45.14L42.57-45.14Q42.57-43.91 42.05-42.79Q41.52-41.66 40.69-40.69Q39.87-39.73 38.87-38.90Q37.86-38.07 36.91-37.44L36.91-37.44Q36-36.81 35.02-36.19Q34.03-35.58 32.87-35.58L32.87-35.58Q32.17-35.58 31.69-35.82Q31.22-36.07 30.88-36.46Q30.55-36.84 30.32-37.35Q30.09-37.86 29.88-38.43L29.88-38.43Q29.74-38.81 29.62-39.08Q29.50-39.34 29.50-39.76L29.50-39.76Q29.50-40.18 30.20-40.61Q30.90-41.03 31.92-41.50Q32.94-41.98 34.08-42.52Q35.23-43.07 36.07-43.70Q36.91-44.33 37.28-45.07Q37.65-45.81 37.13-46.37Q36.60-46.93 35.82-47.04Q35.05-47.14 34.14-47.14L34.14-47.14Q32.27-47.14 29.99-46.74Q27.70-46.34 25.54-45.70Q23.38-45.07 21.59-44.30Q19.79-43.52 18.95-42.79L18.95-42.79Q18.63-42.50 18.19-41.99Q17.75-41.48 17.75-40.99L17.75-40.99Q17.75-40.29 18.47-39.62Q19.20-38.95 20.18-38.43Q21.16-37.90 22.18-37.51Q23.20-37.13 23.77-36.95L23.77-36.95Q25.03-36.56 26.31-36.23Q27.60-35.89 28.86-35.53Q30.13-35.16 31.38-34.73Q32.63-34.31 33.82-33.71L33.82-33.71Q35.93-32.70 37.86-31.36Q39.80-30.02 41.26-28.32Q42.71-26.61 43.59-24.52Q44.47-22.43 44.47-19.90L44.47-19.90Q44.47-16.80 43.08-13.46Q41.70-10.13 39.15-6.94Q36.60-3.76 33.05-0.91Q29.50 1.93 25.17 4.08Q20.85 6.22 15.87 7.47Q10.90 8.72 5.55 8.72L5.55 8.72Q4.99 8.72 4.45 8.70Q3.90 8.68 3.34 8.65L3.34 8.65Q-1.09 8.44-4.52 6.68Q-7.95 4.92-10.18 2.20Q-12.41-0.53-13.34-3.92Q-14.27-7.31-13.68-10.85Q-13.08-14.38-10.85-17.77Q-8.61-21.16-4.57-23.84L-4.57-23.84Q-2.85-25.00-0.54-25.82Q1.76-26.65 4.24-27.19Q6.71-27.74 9.19-28.00Q11.67-28.27 13.75-28.27L13.75-28.27Q15.29-28.27 17.10-28.14Q18.91-28.02 20.69-27.63Q22.46-27.25 24.01-26.53Q25.56-25.80 26.61-24.64L26.61-24.64Q27-24.26 27.35-23.71Q27.70-23.17 27.70-22.57L27.70-22.57Q27.70-22.15 27.47-21.87Q27.25-21.59 26.91-21.39Q26.58-21.20 26.17-21.13Q25.77-21.06 25.42-21.06L25.42-21.06Q23.80-21.06 22.15-21.60Q20.50-22.15 18.95-22.54L18.95-22.54Q16.63-23.17 14.17-23.17L14.17-23.17Q11.64-23.17 9.39-22.32Q7.14-21.48 5.47-19.95Q3.80-18.42 2.81-16.28Q1.83-14.13 1.83-11.53L1.83-11.53Q1.83-10.30 2.00-9.30Q2.18-8.30 2.64-7.49Q3.09-6.68 3.85-6.06Q4.61-5.45 5.80-4.96L5.80-4.96Q7.07-4.46 8.37-4.29Q9.67-4.11 11.04-4.11L11.04-4.11Q13.08-4.11 15.79-4.62Q18.49-5.13 21.36-6.12Q24.22-7.10 27-8.51Q29.78-9.91 31.96-11.69Q34.14-13.46 35.47-15.59Q36.81-17.72 36.81-20.11L36.81-20.11Q36.81-21.90 35.89-23.34Q34.98-24.79 33.59-25.88Q32.20-26.96 30.55-27.76Q28.90-28.55 27.42-29.04Z"/></svg></g></mask></svg> <defs><filter id="colors2825793630"><feColorMatrix type="matrix" values="0 0 0 0 0.19921875  0 0 0 0 0.19921875  0 0 0 0 0.19921875  0 0 0 1 0" class="icon-fecolormatrix"/></filter> <filter id="colorsf9284532676"><feColorMatrix type="matrix" values="0 0 0 0 0.99609375  0 0 0 0 0.99609375  0 0 0 0 0.99609375  0 0 0 1 0" class="icon-fecolormatrix"/></filter> <filter id="colorsb1504995116"><feColorMatrix type="matrix" values="0 0 0 0 0  0 0 0 0 0  0 0 0 0 0  0 0 0 1 0" class="icon-fecolormatrix"/></filter></defs></g><defs v-gra="od"/></svg>
  </svg>